<svg width="1096" height="708" viewBox="0 0 1096 708" fill="none" xmlns="http://www.w3.org/2000/svg">
<path fill-rule="evenodd" clip-rule="evenodd" d="M695.315 0.539887C692.992 1.47676 692.393 3.15484 692.403 8.70467C692.409 11.5605 692.777 15.6138 693.221 17.712C694.305 22.8248 694.277 23.1589 692.409 27.538C691.517 29.6276 690.781 32.0033 690.773 32.817C690.764 33.7113 690.341 34.5196 689.704 34.8608C689.097 35.185 684.782 35.4248 679.558 35.4248C668.939 35.4248 665.861 36.0353 659.523 39.3974C656.539 40.9807 654.477 42.571 652.577 44.7543C650.291 47.3818 649.264 48.0843 645.915 49.3144C635.628 53.0924 628.807 57.4972 627.153 61.4316C626.102 63.9326 626.254 68.5341 627.478 71.2281C628.179 72.7727 629.391 74.0922 631.215 75.2994C633.911 77.0821 633.915 77.0897 634.251 80.702C634.437 82.6913 634.957 85.3662 635.409 86.6459C636.271 89.087 636.439 91.5434 635.887 93.6046C635.408 95.3928 632.782 95.2053 628.249 93.0596C624.72 91.3891 624.165 91.2894 618.509 91.3079C613.368 91.3248 611.615 91.587 606.24 93.1419C598.813 95.2908 598.475 95.45 595.438 98.2197C591.027 102.245 586.405 103.267 578.704 101.919C573.652 101.035 564.364 102.622 555.131 105.946C551.98 107.081 550.197 107.366 546.255 107.366C541.748 107.366 541.028 107.213 537.929 105.595C534.663 103.889 534.303 103.825 528.266 103.847C522.51 103.869 521.524 104.034 516.259 105.847C513.105 106.933 508.566 108.195 506.172 108.652C503.779 109.11 500.225 109.862 498.276 110.324C493.502 111.457 490.901 111.394 486.517 110.04C483.078 108.979 481.973 108.922 470.51 109.214C463.738 109.386 455.912 109.679 453.118 109.865C447.469 110.24 443.966 109.619 441.387 107.782C439.928 106.745 438.939 106.618 431.533 106.516C422.706 106.396 412.578 104.877 410.194 103.316C409.362 102.771 408.787 101.74 408.581 100.422C407.531 93.7049 405.263 90.6555 399.994 88.8772C394.83 87.1337 388.977 87.3228 382.001 89.4587C376.432 91.164 376.333 91.1733 360.048 91.5559C348.186 91.8349 342.641 92.1799 339.873 92.8127C333.943 94.1681 325.681 94.8309 314.71 94.8309C308.076 94.8309 303.32 95.1006 300.727 95.6238C298.565 96.0598 294.22 96.6523 291.071 96.9406C284.25 97.5646 273.384 101.078 266.071 105.025C261.596 107.44 250.72 115.685 250.72 116.662C250.72 117.39 246.844 119.836 244.678 120.474C243.653 120.777 240.659 121.229 238.026 121.48C230.148 122.23 224.036 125.933 219.768 132.545C216.939 136.926 216.036 140.525 214.871 152.057L214.458 156.144L211.886 155.983C205.371 155.573 200.903 158.506 195.571 166.693C193.536 169.819 190.574 174.938 188.988 178.071L186.105 183.766V191.756C186.105 200.345 187.122 214.389 188.064 218.82C188.716 221.882 192.039 232.47 193.316 235.55C194.706 238.903 195.903 239.585 202.736 240.912C209.921 242.308 222.638 242.959 225.774 242.092C226.898 241.781 227.819 241.62 227.819 241.735C227.819 241.85 224.568 243.592 220.594 245.605C213.435 249.233 213.294 249.342 205.19 257.408C200.455 262.12 195.403 266.587 193.194 268.016C191.094 269.373 187.659 271.882 185.56 273.591C183.461 275.3 179.167 278.494 176.018 280.688C172.869 282.883 169.188 285.699 167.838 286.946C166.489 288.193 164.08 290.223 162.487 291.458C160.893 292.692 159.127 294.288 158.563 295.006C157.999 295.722 153.85 299.176 149.344 302.681C140.832 309.301 127.62 321.908 122.634 328.167C119.666 331.893 114.898 339.548 107.143 353.036C102.779 360.626 96.2949 368.823 88.9173 376.077C84.7896 380.136 79.6455 384.876 77.4856 386.609C75.3263 388.342 70.6528 392.766 67.0997 396.44L60.6398 403.12L58.2723 410.162C54.3359 421.87 52.8544 425.357 50.1553 429.268C48.7354 431.326 47.0657 433.745 46.4458 434.644C45.8252 435.543 43.161 439.545 40.5252 443.537C33.5914 454.036 23.301 464.837 17.3215 467.89C13.5416 469.82 4.20922 479.258 2.50142 482.878C-0.214057 488.633 -0.701533 495.763 0.955561 505.495C1.26146 507.294 2.0134 513.793 2.62683 519.938C4.91972 542.926 4.56474 541.394 8.55289 545.487C12.173 549.202 16.0259 550.991 20.4192 550.998C24.7558 551.005 31.6753 549.57 34.791 548.017C39.71 545.566 42.763 544.853 45.5788 545.498C46.9932 545.822 49.8412 546.345 51.9072 546.66C53.9738 546.976 57.5503 547.961 59.8552 548.849C67.1886 551.676 76.5466 552.268 85.8594 550.495C88.9037 549.915 92.5838 548.845 94.0375 548.118C95.4906 547.391 99.4444 545.882 102.823 544.764C109.62 542.516 110.454 542.485 120.672 544.087C132.701 545.974 140.09 546.76 143.959 546.565C147.682 546.377 148.391 546.138 152.367 543.735C154.755 542.292 158.91 539.475 161.599 537.474C174.614 527.791 181.185 525.061 193.466 524.232C197.515 523.959 204.263 523.51 208.461 523.232C212.66 522.955 218.058 522.236 220.458 521.635C227.622 519.838 238.31 516.181 240.361 514.825C245.259 511.585 251.426 503.932 253.41 498.632C255.151 493.983 255.315 493.861 261.058 492.933C264.93 492.309 267.779 491.394 272.493 489.261C278.021 486.759 279.344 485.879 283.567 481.892C288.551 477.188 290.908 475.792 293.875 475.792C294.862 475.792 298.611 477.18 302.481 478.978C306.252 480.731 310.285 482.476 311.443 482.856C314.539 483.872 318.15 483.188 325.887 480.119C329.619 478.638 333.433 477.433 334.364 477.439C335.295 477.446 337.16 477.958 338.51 478.577C341.46 479.931 355.806 485.224 361.139 486.926C366.389 488.602 374.301 489.65 378.437 489.218C380.764 488.975 383.244 488.178 386.273 486.699C391.48 484.156 403.646 481.003 411.484 480.166C414.384 479.855 417.738 479.359 418.938 479.063C423.435 477.953 433.924 477.761 438.578 478.704C440.982 479.191 445.313 479.834 448.202 480.134C451.091 480.433 455.871 481.084 458.825 481.58C461.915 482.099 467.438 482.499 471.83 482.52C483.985 482.581 521.592 481.865 526.144 481.487C532.828 480.932 544.505 483.543 555.53 488.059C566.786 492.669 578.872 493.916 585.188 491.117C588.141 489.809 597.785 488.382 603.787 488.366C605.886 488.361 608.34 488.133 609.239 487.86C610.904 487.356 623.952 482.173 631.255 479.116C633.467 478.19 637.191 477.045 639.532 476.571C643.427 475.782 644.078 475.784 647.234 476.589C652.06 477.82 655.643 480.165 661.535 485.95C668.716 493 671.465 494.706 677.161 495.646C679.691 496.065 686.126 496.558 691.459 496.743C699.468 497.022 701.463 496.937 702.91 496.26C703.874 495.809 705.747 495.062 707.073 494.6C710.758 493.316 723.517 484.429 724.189 482.678C724.52 481.817 734.45 468.438 736.378 466.255C737.173 465.355 739.233 462.903 740.956 460.805C742.679 458.706 744.911 456.224 745.914 455.287C747.849 453.483 754.779 449.573 764.607 444.74C771.747 441.23 777.248 436.375 780.918 430.346C783.637 425.879 784.382 425.655 789.267 427.839C791.743 428.945 792.279 429.013 793.753 428.403C794.841 427.952 795.75 426.977 796.35 425.616C797.507 422.996 798.178 423.344 798.178 426.565C798.178 428.713 798.457 429.329 800.238 431.109C802.247 433.118 806.568 434.917 809.385 434.917C810.88 434.917 817.845 440.47 820.998 444.175C822.302 445.709 824.342 447.607 825.531 448.393C828.089 450.085 827.927 450.224 821.897 451.523C816.234 452.742 811.078 454.821 804.994 458.336C798.764 461.936 798.624 462.07 796.531 466.43C794.825 469.985 794.793 470.196 795.113 475.52C795.293 478.517 795.68 485.262 795.973 490.508C796.414 498.421 797.526 509.199 799.573 525.388C800.203 530.373 801.706 535.886 803.327 539.157C805.296 543.13 807.909 544.933 811.81 545.009C813.159 545.035 815.245 545.433 816.444 545.893C824.277 548.894 826.873 549.479 833.621 549.759C839.073 549.986 841.071 549.856 843.609 549.111C847.93 547.843 852.835 544.356 856.778 539.75C859.69 536.349 864.497 532.747 868.096 531.269C869.267 530.789 871.159 531.548 880.857 536.392C887.602 539.76 889.029 540.273 892.309 540.507C898.739 540.967 908.979 538.509 913.231 535.484C914.58 534.525 916.789 533.311 918.138 532.788C922.369 531.149 927.519 527.625 936.95 519.917C943.302 514.726 944.692 513.77 949.222 511.479C953.213 509.459 953.474 509.406 960.397 509.182C972.051 508.807 977.08 508.989 981.39 509.942C987.861 511.373 993.211 511.122 999.93 509.071C1003.59 507.953 1007.33 507.222 1010.29 507.042C1017.08 506.63 1030.92 508.135 1035.92 509.832C1040.18 511.275 1050.62 513.074 1058.41 513.706C1064.24 514.178 1067.34 513.52 1077.73 509.595C1090 504.965 1092.3 502.553 1095.19 491.325C1096.16 487.534 1096.3 465.143 1095.37 461.686C1095.07 460.585 1093.88 458.097 1092.71 456.157L1090.59 452.629L1090.32 445.097C1090.16 440.806 1090.27 436.635 1090.59 435.402C1091.08 433.439 1090.96 432.9 1089.24 429.581C1087.43 426.112 1087.37 425.83 1088.1 424.097C1088.78 422.462 1088.75 422.061 1087.84 420.282C1086.28 417.243 1083.06 416.292 1075.72 416.697L1070 417.014L1066.18 414.982C1060.89 412.169 1059.1 410.701 1057.22 407.636C1054.71 403.57 1053.56 403.187 1042.23 402.672C1036.86 402.427 1030.48 401.961 1028.06 401.636C1025.63 401.311 1020.95 400.835 1017.65 400.577C1013.61 400.261 1009.87 399.561 1006.2 398.433C1003.2 397.513 998.662 396.534 996.113 396.258C993.564 395.982 990.274 395.483 988.802 395.15C987.258 394.8 982.187 394.597 976.806 394.67C966.712 394.809 967.042 394.871 952.763 390.149C943.484 387.08 943.534 387.081 936.405 389.796C931.023 391.845 926.847 391.974 920.438 390.29C915.308 388.942 912.302 389.305 910.797 391.453C909.517 393.28 909.766 394.772 912.14 399.491C914.667 404.514 914.777 405.413 913.06 407.026C911.4 408.584 910.897 408.545 903.765 406.297C897.686 404.38 897.18 404.086 890.273 398.453C887.465 396.163 881.774 393.233 873.233 389.679C870.579 388.575 867.553 386.611 863.871 383.605C859.076 379.69 856.685 378.247 851.686 376.252C850.472 375.767 850.653 375.567 854.685 372.944C860.527 369.141 861.943 367.537 862.845 363.699C864.218 357.848 862.082 354.281 855.27 351.051C848.532 347.856 846.622 347.541 838.284 348.254C834.37 348.589 829.695 349.12 827.895 349.435C826.096 349.75 821.311 350.466 817.262 351.026C813.214 351.586 808.647 352.339 807.114 352.697C804.758 353.249 803.705 353.201 800.298 352.389C794.623 351.035 792.129 349.418 785.909 343.059C779.718 336.73 773.238 331.845 769.421 330.631C767.993 330.176 763.634 329.387 759.736 328.877C751.187 327.758 746.387 325.776 739.366 320.47C733.29 315.877 730.019 311.733 730.019 308.624C730.018 305.516 725.521 296.807 720.31 289.825C715.063 282.793 712.746 281.117 704.663 278.507C696.386 275.834 692.933 272.44 689.682 263.784C689.288 262.735 687.509 258.758 685.729 254.947C683.948 251.136 682.643 247.77 682.83 247.468C683.284 246.735 689.022 245.015 693.757 244.192C695.857 243.828 699.537 243.071 701.936 242.511C704.336 241.95 707.403 241.347 708.752 241.169C711.937 240.751 715.67 238.936 716.757 237.277C717.23 236.556 718.081 232.844 718.649 229.028C719.48 223.438 719.636 219.973 719.451 211.19C719.229 200.687 719.158 200.111 717.518 195.385L715.814 190.48L717.6 188.965C719.88 187.029 728.843 181.05 732.744 178.861L735.743 177.179L743.377 178.553C751.953 180.097 759.082 180.078 764.25 178.5C767.651 177.461 778.743 169.32 785.147 163.162C787.427 160.97 789.918 158.938 790.683 158.648C791.447 158.357 797.192 158.122 803.449 158.124C814.749 158.129 814.863 158.118 820.27 156.389C831.596 152.769 836.975 149.102 842.858 140.987C846.549 135.897 846.537 135.968 846.483 119.629L846.435 104.914L844.918 101.826C843.97 99.8973 842.091 97.5139 839.912 95.4761C835.442 91.297 830.497 89.3072 820.734 87.7588C815.711 86.962 811.24 85.7788 804.994 83.5922C800.195 81.913 794.674 79.9941 792.725 79.3286C789.644 78.2767 789.038 77.8391 788.09 75.9833C787.083 74.011 786.997 72.7444 786.974 59.4053C786.947 43.5084 786.738 41.9568 783.193 31.255C779.139 19.019 778.075 17.9949 761.644 10.5174C756.167 8.0245 755.718 7.91441 751.284 7.97599C747.948 8.02286 745.841 8.36513 743.766 9.19791C742.18 9.83393 740.19 10.3544 739.342 10.3544C737.928 10.3544 737.772 10.1511 737.463 7.89751C737.057 4.93648 735.837 2.9412 733.781 1.87898C731.767 0.838008 722.486 0.80476 720.032 1.82938C718.46 2.48611 717.708 2.42725 713.37 1.31271C708.239 -0.00621258 697.778 -0.453665 695.315 0.539887ZM713.063 6.88488C718.606 8.29482 718.797 8.30735 721.301 7.407C723.019 6.7895 725.103 6.53989 727.623 6.6489L731.381 6.81185L731.731 9.67915C732.145 13.0626 733.332 15.0905 735.363 15.8803C737.407 16.6754 742.354 16.125 745.286 14.7772C746.946 14.0131 748.874 13.6446 751.25 13.6365C754.265 13.6261 755.53 13.9744 760.247 16.1119C763.264 17.4799 766.75 19.0577 767.991 19.6179C770.83 20.8998 773.983 23.6412 775.1 25.8022C776.436 28.3828 778.914 36.8206 779.928 42.2375C780.709 46.4046 780.776 48.7002 780.379 57.4977C779.683 72.8861 779.803 75.0454 781.574 78.9902C783.431 83.1246 785.378 84.8381 788.774 85.3275C790.197 85.5324 792.22 86.0578 793.27 86.4949C800.133 89.3546 813.746 93.3092 820.049 94.275C828.736 95.6059 832.843 97.3455 836.445 101.222C840.841 105.952 841.271 111.214 837.47 113.768C835.253 115.256 831.827 116.286 818.625 119.428L808.81 121.765L787.719 122.059C767.491 122.342 766.566 122.4 765.09 123.483C762.584 125.323 761.65 127.801 761.614 132.709C761.597 135.107 761.29 137.927 760.932 138.977C760.345 140.696 759.904 141.011 756.464 142.17C752.424 143.532 745.078 144.271 741.764 143.65C740.487 143.41 738.644 142.234 736.416 140.238C730.667 135.085 728.55 134.757 721.487 137.92C718.672 139.181 716.533 140.763 712.823 144.327C710.113 146.93 706.476 150.114 704.741 151.403C700.125 154.831 699.72 156.101 700.534 164.592C701.424 173.868 701.917 175.838 705.244 183.395C708.455 190.688 712.024 201.259 712.024 203.476V204.923H707.206C703.97 204.923 699.806 205.458 694.528 206.553C690.205 207.45 685.196 208.192 683.397 208.202C679.014 208.225 676.419 208.868 668.674 211.844C661.295 214.679 659.908 215.67 659.096 218.684C658.241 221.858 659.16 223.828 664.422 230.092C669.196 235.776 673.309 243.038 673.309 245.785C673.309 246.558 673.643 247.675 674.051 248.266C674.76 249.293 675.549 251.121 681.448 265.419C684.857 273.684 686.052 275.936 688.417 278.552C691.058 281.474 696.657 284.684 701.664 286.147C707.999 287.998 709.547 289.007 712.742 293.365C716.724 298.797 718.656 302.082 720.991 307.391C722.092 309.893 724.327 313.834 725.958 316.148C732.6 325.567 745.493 334.038 754.958 335.201C764.648 336.392 766.437 336.735 768.488 337.794C772.116 339.667 776.276 343.077 780.572 347.699C786.026 353.565 790.629 356.787 795.888 358.416C802.297 360.402 805.078 360.577 809.44 359.269C811.493 358.654 816.264 357.758 820.043 357.278C823.821 356.799 827.659 356.192 828.572 355.931C829.485 355.669 833.787 355.157 838.133 354.792C846.685 354.074 847.687 354.21 852.803 356.772C855.914 358.33 857.157 359.947 856.707 361.849C856.222 363.899 855.112 364.978 850.166 368.213C844.954 371.622 843.435 373.342 843.435 375.839C843.435 378.207 846.112 380.935 849.752 382.276C853.17 383.536 855.23 384.88 860.521 389.298C865.03 393.063 866.383 393.824 877.202 398.673C882.224 400.924 885.107 402.631 888.338 405.27C893.681 409.632 895.127 410.384 903.56 413.175C910.887 415.6 912.947 415.689 916.139 413.717C917.155 413.09 918.696 411.553 919.562 410.302C921.547 407.437 921.679 403.29 919.909 399.355C919.269 397.931 918.915 396.775 919.123 396.786C919.331 396.796 920.974 397.16 922.773 397.594C928.652 399.013 933.818 398.354 940.574 395.324L943.675 393.933L948.764 395.588C965.357 400.981 964.258 400.763 977.028 401.188C983.476 401.403 989.856 401.834 991.205 402.146C992.555 402.458 994.531 402.724 995.596 402.737C996.661 402.75 1000.59 403.639 1004.32 404.712C1009.87 406.308 1012.55 406.752 1019.01 407.154C1023.36 407.425 1029.37 407.887 1032.37 408.182C1035.37 408.476 1040.6 408.726 1043.99 408.737C1050.81 408.758 1050.5 408.62 1054.11 413.352C1055.64 415.346 1060.37 418.715 1065.36 421.356C1067.55 422.515 1068.52 422.654 1074.36 422.654H1080.9L1081.05 424.834C1081.13 426.033 1081.98 428.551 1082.96 430.43C1085.13 434.629 1084.88 434.892 1078.72 434.921C1073.86 434.943 1070.49 436.094 1068.98 438.249C1067.1 440.929 1068.24 442.686 1074.78 447.207C1081.31 451.725 1088.26 458.728 1088.26 460.791C1088.26 461.544 1085.17 462.125 1078.12 462.697C1072 463.194 1070 463.573 1067.71 464.673C1064.52 466.203 1062.64 468.692 1062.64 471.36C1062.64 472.898 1062.47 473.067 1060.98 473.067C1058.42 473.067 1055.86 471.759 1051.58 468.264C1045.71 463.482 1044.4 462.968 1034.01 461.405C1031.01 460.954 1027.08 460.055 1025.29 459.407C1022.77 458.502 1020.06 458.131 1013.56 457.807C1008.91 457.574 1004.25 457.109 1003.2 456.774C1002.15 456.438 999.771 455.897 997.91 455.571C994.788 455.024 994.304 455.081 991.615 456.312C990.013 457.045 987.194 458.99 985.351 460.634C982.684 463.012 981.283 463.817 978.498 464.571C976.572 465.092 973.712 466.113 972.141 466.84C968.723 468.423 967.342 468.46 963.396 467.072C958.356 465.3 952.078 465.578 944.983 467.886C935.098 471.102 932.392 473.181 931.473 478.264C931.258 479.453 930.832 480.741 930.525 481.126C930.218 481.513 927.367 483.158 924.189 484.783C921.011 486.408 916.816 488.84 914.867 490.187C903.795 497.842 903.301 498.138 901.598 498.119C899.08 498.092 894.037 494.281 889.711 489.136C882.661 480.753 876.987 480.216 864.682 486.77C857.269 490.717 847.442 500.4 841.893 509.223C837.44 516.303 836.561 517.489 835.219 518.236C833.303 519.302 832.153 518.912 824.896 514.737C821.447 512.752 816.807 510.474 814.586 509.674C808.956 507.648 808.709 507.025 812.131 503.461C818.559 496.768 821.652 492.221 823.53 486.7C824.936 482.57 828.511 476.001 830.046 474.727C831.397 473.607 831.099 471.127 829.457 469.837C827.658 468.422 825.258 468.402 821.218 469.767C817.177 471.133 813.35 471.799 806.759 472.282C801.779 472.648 801.45 472.608 801.458 471.643C801.481 469.062 803.869 466.39 808.538 463.72C814.783 460.15 817.693 459.128 825.34 457.824C832.061 456.678 836.458 456.518 842.066 457.215C844.012 457.457 847.098 457.36 849.705 456.975C852.245 456.6 856.982 456.441 861.008 456.596C867.718 456.854 868.033 456.816 870.99 455.369C874.898 453.458 876.118 451.306 875.14 448.044C873.943 444.05 870.354 441.474 861.467 438.232C856.444 436.4 849.592 432.105 843.22 426.794C834.524 419.547 828.013 415.654 820.398 413.148C818.373 412.482 816.717 411.742 816.717 411.504C816.717 410.895 826.273 402.256 829.367 400.068C832.656 397.742 833.985 395.146 833.046 392.88C832.073 390.531 829.731 389.571 824.204 389.256L819.387 388.982L818.34 386.93C816.213 382.764 811.969 381.3 808.934 383.686C806.43 385.655 805.95 385.062 805.415 379.336C804.969 374.56 803.331 372.786 799.37 372.786C797.836 372.786 795.63 372.318 794.284 371.708C789.186 369.396 785.58 370.768 782.921 376.033C779.159 383.481 779.101 387.402 782.639 394.753C783.714 396.985 784.737 399.7 784.913 400.786L785.234 402.761H781.289C777.661 402.761 776.791 402.512 770.449 399.655C761.893 395.8 758.448 395.335 754.242 397.467C749.046 400.101 748.104 402.939 751.039 407.125C751.923 408.387 753.232 410.401 753.947 411.6C755.516 414.23 755.535 414.212 749.103 416.174C738.701 419.347 727.856 426.663 716.101 438.435C711.051 443.492 709.926 444.933 709.063 447.452C708.061 450.375 700.088 464.341 699.419 464.345C699.233 464.346 698.418 463.344 697.607 462.119C695.787 459.37 692.425 457.772 687.662 457.39C683.406 457.048 682.866 456.495 683.907 453.546C685.644 448.626 681.61 443.092 676.287 443.092C674.176 443.092 662.597 441.303 658.723 440.379C657.448 440.075 654.117 438.849 651.321 437.655C645.06 434.981 639.061 433.942 635.321 434.883C632.702 435.542 630.968 436.482 616.921 444.854C612.449 447.519 607.391 450.428 605.681 451.318C600.425 454.052 593.061 454.67 583.282 453.196C577.35 452.303 574.09 451.167 563.917 446.447C554.462 442.061 553.008 441.762 546.364 442.84C542.967 443.392 539.523 443.588 536.718 443.389C527.128 442.713 498.376 442.537 494.399 443.13C492.182 443.461 487.302 443.824 483.553 443.935C479.805 444.048 474.897 444.423 472.648 444.77C469.034 445.328 468.019 445.273 463.923 444.298C455.566 442.311 451.187 441.844 443.624 442.133C433.902 442.505 426.667 441.761 420.301 439.735C415.197 438.11 414.984 438.089 405.851 438.33C394.867 438.618 392.349 439.271 384.04 443.976C378.639 447.035 374.576 448.523 371.587 448.535C370.442 448.54 369.048 447.638 366.232 445.069C361.554 440.801 357.808 438.916 351.37 437.588C343.213 435.905 341.269 436.111 330.242 439.822C324.898 441.62 319.625 443.092 318.524 443.092C316.77 443.092 316.145 442.68 313.475 439.766C311.799 437.936 309.447 435.873 308.247 435.181C304.514 433.027 298.822 431.543 294.064 431.483C289.786 431.43 289.58 431.49 284.146 434.366C276.758 438.276 267.581 444.881 263.408 449.291C260.058 452.832 255.56 455.648 252.084 456.382C251.184 456.572 247.578 457.08 244.071 457.511C235.069 458.615 233.115 459.879 232.113 465.24C231.211 470.063 229.408 475.219 228.065 476.815C227.318 477.702 224.32 479.647 221.401 481.138C215.119 484.348 214.553 484.433 197.009 484.791C188.157 484.972 183.504 485.296 181.196 485.895C177.31 486.902 168.45 491.946 161.591 497.055C158.879 499.076 154.575 501.924 152.025 503.385L147.391 506.04H120.945H94.4988L91.4201 507.819C89.7265 508.798 87.4358 510.637 86.3294 511.907C85.2231 513.177 83.8223 514.768 83.217 515.442C82.6112 516.116 81.5179 516.668 80.7878 516.668C78.9306 516.668 75.443 514.786 72.7701 512.34C69.3937 509.251 66.8833 508.22 58.9151 506.649C48.7397 504.642 49.3995 504.571 39.6985 508.717C37.1494 509.806 34.0822 510.957 32.8826 511.275C31.683 511.592 28.7881 512.966 26.4494 514.327C21.7104 517.086 20.754 517.151 15.8749 515.054C13.9669 514.233 12.1904 512.774 9.82121 510.083C4.89464 504.488 3.87661 500.134 5.59696 492.019C6.02445 490.003 6.85818 487.259 7.4498 485.923C8.90569 482.634 16.8689 474.431 20.6139 472.364C22.5338 471.304 26.457 467.848 31.5194 462.756C38.1957 456.042 40.367 453.406 45.4763 445.814C48.8041 440.87 52.6385 435.23 53.9978 433.282C57.5547 428.182 58.8164 425.387 62.1148 415.305L65.0539 406.321L71.0519 400.105C74.3508 396.685 79.2583 392.104 81.9574 389.923C88.9724 384.257 101.222 371.715 105.351 365.973C107.29 363.275 112.447 355.154 116.81 347.926C121.871 339.542 126.318 332.905 129.094 329.593C134.299 323.382 143.886 314.308 150.972 308.883C153.8 306.718 158.078 303.096 160.477 300.836C162.876 298.576 166.066 295.752 167.566 294.561C169.065 293.371 171.151 291.539 172.201 290.49C173.25 289.44 176.317 287.062 179.017 285.205C181.717 283.348 186.048 280.112 188.643 278.014C191.238 275.916 195.041 273.116 197.094 271.792C199.195 270.437 204.285 265.945 208.734 261.518C215.972 254.317 217.102 253.417 222.093 250.868C225.092 249.337 230.981 246.696 235.18 245C244.7 241.154 256.676 234.195 266.289 226.922C270.837 223.48 277.948 219.556 282.892 217.758C287.609 216.041 290.95 214.109 293.186 211.803C294.663 210.28 294.955 209.626 294.669 208.486C294.284 206.953 293.623 206.607 288.617 205.313C286.818 204.849 283.628 203.946 281.528 203.306C278.616 202.419 276.614 202.183 273.077 202.309C267.289 202.517 263.178 204.32 257.404 209.183C254.821 211.358 252.651 212.708 251.133 213.085C249.857 213.403 246.972 214.19 244.722 214.834C239.051 216.457 229.219 216.416 223.729 214.746C218.609 213.188 214.952 212.25 208.565 210.857C203.769 209.81 202.839 209.398 199.568 206.875C194.121 202.672 193.28 200.811 193.014 192.373L192.8 185.545L195.51 180.335C199.247 173.154 203.537 166.595 205.791 164.616C208.711 162.053 211.247 162.309 219.912 166.038C229.52 170.172 233.291 171.128 241.451 171.498C247.545 171.774 248.642 171.679 251.811 170.601C253.76 169.938 256.739 168.541 258.431 167.498C260.122 166.455 262.33 165.531 263.338 165.446C265.938 165.224 269.069 163.785 269.761 162.494C271.097 160 268.637 157.507 264.84 157.507C263.948 157.507 262.185 156.967 260.923 156.307C259.06 155.335 257.495 155.071 252.629 154.912C249.057 154.796 245.761 154.383 244.48 153.894C243.296 153.441 241.004 152.826 239.386 152.527C235.857 151.875 227.887 147.652 224.993 144.9C223.076 143.077 222.911 142.684 222.911 139.94C222.911 137.529 223.208 136.551 224.466 134.815C228.071 129.841 233.22 127 238.646 126.992C242.319 126.986 247.703 125.811 250.369 124.434C251.251 123.978 253.593 122.087 255.573 120.233C263.439 112.863 269.026 109.56 279.701 105.966C285.2 104.116 288.382 103.382 292.707 102.97C295.856 102.67 299.291 102.167 300.341 101.851C301.39 101.536 309.119 101.059 317.517 100.792C329.418 100.413 334.107 100.047 338.782 99.1299C343.612 98.1832 347.754 97.8807 360.048 97.5777L375.316 97.2011L381.962 95.1987C389.446 92.9435 393.916 92.6328 398.147 94.0738C401.417 95.1873 402.329 96.6092 402.857 101.41C403.325 105.677 404.342 107.243 407.787 109.01C411.739 111.036 426.71 113.166 433.557 112.677C436.95 112.435 437.54 112.559 440.373 114.113C443.411 115.778 443.624 115.813 450.564 115.78C454.463 115.761 462.928 115.547 469.376 115.304C480.697 114.877 481.239 114.904 485.168 116.107C487.406 116.792 490.595 117.36 492.257 117.37C495.917 117.391 507.639 114.931 514.361 112.73C522.832 109.958 524.616 109.559 528.599 109.553C531.911 109.547 532.975 109.804 535.913 111.317C539.266 113.045 539.523 113.088 546.214 113.069C552.821 113.049 553.263 112.974 558.121 111.042C560.896 109.939 565.313 108.629 567.936 108.131C572.096 107.343 573.559 107.312 579.374 107.891C583.042 108.257 587.09 108.381 588.371 108.167C591.34 107.671 596.097 105.284 599.079 102.794C602.665 99.7997 610.449 97.4409 617.749 97.1368L623.532 96.8959L627.237 98.8607C633.633 102.253 638.952 101.4 640.931 96.6643C641.926 94.2859 641.889 87.9223 640.865 85.0207C640.416 83.7465 640.047 80.9887 640.047 78.8931C640.047 75.2034 639.983 75.0192 638 73.1024C636.874 72.014 635.261 70.6324 634.416 70.0329C633.297 69.2394 632.8 68.3423 632.589 66.7362C632.158 63.4541 633.974 61.6371 641.054 58.2629C644.249 56.7402 648.413 54.7449 650.307 53.8287C652.667 52.688 654.556 51.2301 656.305 49.1994C657.759 47.5121 660.269 45.4497 662.131 44.4131C667.349 41.5077 670.811 40.8749 681.485 40.8749C693.668 40.8749 695.308 40.1681 696.397 34.4455C696.585 33.4574 697.479 30.9639 698.383 28.9043C700.237 24.6838 700.431 21.9871 699.21 17.4395C698.767 15.7909 698.402 12.4184 698.399 9.94566L698.392 5.44933L702.891 5.44551C705.975 5.44279 709.173 5.89569 713.063 6.88488ZM717.085 517.197C715.094 518.41 712.434 523.213 711.267 527.701C710.27 531.538 710.875 538.45 712.482 541.58C713.922 544.386 713.978 546.187 712.662 547.377C710.969 548.909 708.393 548.413 701.199 545.172C692.842 541.407 689.17 540.869 685.261 542.834C682.285 544.331 680.955 545.469 680.357 547.031C680.102 547.698 680.139 553.139 680.439 559.214C680.845 567.405 680.824 570.384 680.354 570.949C680.008 571.366 678.375 572.479 676.726 573.423C673.127 575.48 664.48 581.867 659.95 585.813C651.334 593.319 640.185 607.959 638.109 614.497C637.633 615.996 637.042 617.713 636.797 618.312C634.799 623.191 633.876 631.455 634.151 642C634.344 649.448 634.564 651.429 635.323 652.587C636.465 654.33 638.065 654.418 639.198 652.799C640.015 651.635 640.047 651.695 640.047 654.353C640.047 659.765 641.34 661.348 645.245 660.715C646.71 660.477 647.441 660.71 648.791 661.845C649.929 662.803 650.883 663.177 651.677 662.979C653.187 662.601 654.525 663.591 655.729 665.976C656.51 667.526 657.161 667.984 659.405 668.565C662.963 669.488 667.532 668.944 670.163 667.284C671.282 666.578 672.521 666.001 672.917 666.001C674.026 666.001 674.945 667.173 674.945 668.587C674.945 670.432 677.144 672.356 679.758 672.797C685.771 673.813 693.943 668.411 697.412 661.128C698.349 659.162 699.576 656.928 700.138 656.164C700.712 655.385 701.35 653.234 701.593 651.259C702.013 647.846 702.044 647.791 702.666 649.378C703.019 650.277 703.669 651.657 704.111 652.443C705.296 654.548 703.939 658.016 700.376 661.991C696.743 666.045 695.12 669.785 695.12 674.108C695.12 675.907 695.496 681.832 695.955 687.273C696.655 695.583 696.997 697.573 698.087 699.705C700.937 705.277 703.068 705.989 706.507 702.516C707.829 701.183 709.173 700.336 709.97 700.336C711.392 700.336 713.353 702.199 715.215 705.315C716.939 708.203 720.353 708.892 722.273 706.74C726.786 701.682 727.951 700.196 729.859 697.066C731.326 694.659 732.125 692.616 732.352 690.691C732.536 689.133 733.277 686.558 734 684.969C734.722 683.379 735.628 681.097 736.012 679.898C737.333 675.779 743.935 663.134 746.214 660.358C746.916 659.504 748.025 657.664 748.678 656.271C749.764 653.955 749.863 652.898 749.839 643.928C749.82 636.808 749.572 633.154 748.935 630.603C747.898 626.447 748.081 626.097 751.965 624.807C754.41 623.996 756.121 623.938 766.236 624.327C786.42 625.102 794.379 624.991 796.361 623.908C798.72 622.617 800.502 618.682 802.348 610.682C804.134 602.947 804.485 592.835 803.068 589.981C802.108 588.046 799.187 586.349 792.615 583.907C787.061 581.844 780.65 577.84 773.763 572.135C771.131 569.955 768.066 567.558 766.951 566.809C764.924 565.447 764.923 565.445 764.866 561.359C764.533 537.602 764.519 537.502 761.449 535.915C760.465 535.407 757.78 534.935 754.954 534.773L750.137 534.499L749.09 532.448C746.963 528.282 742.719 526.818 739.684 529.203C737.18 531.172 736.7 530.579 736.165 524.853C735.719 520.078 734.081 518.303 730.12 518.303C728.586 518.303 726.38 517.835 725.034 517.225C722.004 515.851 719.309 515.841 717.085 517.197ZM723.118 522.391C724.195 522.84 725.954 523.208 727.026 523.208C729.431 523.208 731.639 525.199 731.686 527.407C731.704 528.245 732.256 530.402 732.913 532.201C733.948 535.034 734.313 535.494 735.641 535.646C736.529 535.748 738.304 535.232 739.857 534.42C741.332 533.649 742.933 533.018 743.414 533.018C743.895 533.018 745.065 533.9 746.014 534.977C748.306 537.578 750.153 538.468 753.259 538.468C756.28 538.468 757.827 539.582 757.827 541.756C757.827 543.316 755.192 545.908 747.467 551.948C745.518 553.472 743.496 555.448 742.975 556.34C742.062 557.902 742.069 558.011 743.16 559.398C744.675 561.323 746.967 562.44 751.231 563.332C754.026 563.916 755.914 564.84 760.16 567.702C763.121 569.697 767.427 572.898 769.728 574.814C772.03 576.729 775.36 579.021 777.129 579.907C778.898 580.793 781.106 582.092 782.036 582.793C785.344 585.286 788.683 586.913 792.1 587.696C796.54 588.713 797.306 589.495 797.336 593.039C797.36 595.823 797.345 595.847 795.179 596.617C792.403 597.604 788.776 597.701 776.863 597.107C765.088 596.519 753.298 597.386 746.376 599.348C741.86 600.628 734.179 604.344 730.787 606.888C729.841 607.597 728.346 609.734 727.379 611.758C725.96 614.727 725.656 616.028 725.656 619.124C725.656 625.392 727.88 626.822 737.425 626.692C740.165 626.655 742.886 626.896 743.515 627.233C746.454 628.805 745.03 636.067 740.849 640.826C738.308 643.718 732.563 652.826 731.501 655.645C730.367 658.654 725.803 664.394 723.329 665.923C722.267 666.578 720.628 668.544 719.417 670.614C717.028 674.697 715.814 675.132 714.416 672.405C713.312 670.251 712.731 669.835 710.815 669.824C709.835 669.818 708.672 670.477 707.378 671.771C706.302 672.845 705.101 673.602 704.707 673.451C704.314 673.3 703.073 672.055 701.949 670.685C699.302 667.455 699.558 666.479 704.109 662.486C707.074 659.884 707.662 659.083 707.665 657.643C707.67 654.496 708.816 651.716 711.158 649.17C714.86 645.143 715.296 644.265 715.296 640.821C715.296 638.799 715.783 636.39 716.669 634.039L718.042 630.394L716.941 629.223C716.336 628.579 715.841 627.776 715.841 627.439C715.841 627.102 714.859 625.692 713.659 624.306C711.664 622.002 711.504 621.591 711.796 619.504C711.971 618.249 712.339 616.511 712.615 615.642C713.472 612.935 713.22 611.048 711.888 610.186C710.5 609.288 702.653 607.14 700.762 607.14C698.694 607.14 698.174 608.943 699.426 611.772C700.02 613.114 700.673 615.91 700.878 617.986L701.25 621.761L698.802 624.397C697.456 625.846 695.979 627.769 695.521 628.669C694.103 631.45 692.982 632.039 688.414 632.405L684.162 632.746L684.531 629.488C685.429 621.547 680.544 620.027 675.173 626.578C673.038 629.181 671.932 629.448 668.758 628.122C667.682 627.673 666.209 627.305 665.485 627.305C664.619 627.305 663.666 626.646 662.698 625.378C661.437 623.724 660.943 623.468 659.221 623.569C658.037 623.639 656.608 623.29 655.734 622.718C654.297 621.776 654.196 621.784 652.304 622.953C650.436 624.107 650.311 624.117 649.291 623.193C648.705 622.664 648.227 621.833 648.227 621.347C648.227 620.017 646.653 618.038 645.606 618.052C645.098 618.058 644.069 618.543 643.319 619.13C641.447 620.594 640.046 620.535 640.053 618.994C640.071 614.789 650.164 600.28 658.935 591.846C667.873 583.253 677.984 576.346 686.032 573.337C690.554 571.645 691.367 570.458 691.704 565.049C691.934 561.358 691.805 560.126 691.025 558.606C690.495 557.572 689.911 556.604 689.728 556.454C688.484 555.436 685.82 550.679 685.957 549.722C686.305 547.283 692.255 545.802 695.12 547.439C699.826 550.127 706.275 553.181 707.885 553.483C710.479 553.97 712.964 553.029 715.705 550.523C717.804 548.603 718.022 548.163 718.022 545.832C718.022 544.201 717.542 542.303 716.71 540.647C714.706 536.66 713.984 530.949 715.029 527.354C716.088 523.713 717.587 522.233 720.818 521.636C721.006 521.602 722.041 521.941 723.118 522.391Z" fill="#F29E6D"/>
</svg>
