<svg width="28" height="22" viewBox="0 0 28 22" fill="none" xmlns="http://www.w3.org/2000/svg">
<path d="M14 0C9.94471 0 6.36058 0.429688 4.17308 0.75625C2.36418 1.02695 0.904447 2.41914 0.572115 4.2625C0.290264 5.83086 0 8.12539 0 11C0 13.8746 0.290264 16.1691 0.572115 17.7375C0.904447 19.5809 2.36418 20.9773 4.17308 21.2437C6.36899 21.5703 9.96574 22 14 22C18.0343 22 21.631 21.5703 23.8269 21.2437C25.6358 20.9773 27.0956 19.5809 27.4279 17.7375C27.7097 16.1648 28 13.866 28 11C28 8.13398 27.7139 5.83516 27.4279 4.2625C27.0956 2.41914 25.6358 1.02695 23.8269 0.75625C21.6394 0.429688 18.0553 0 14 0ZM14 2.2C17.9123 2.2 21.4081 2.6082 23.524 2.92188C24.4327 3.05938 25.1436 3.75977 25.3077 4.675C25.5685 6.12734 25.8462 8.28008 25.8462 11C25.8462 13.7156 25.5685 15.8727 25.3077 17.325C25.1436 18.2402 24.4369 18.9449 23.524 19.0781C21.3996 19.3918 17.887 19.8 14 19.8C10.113 19.8 6.59615 19.3918 4.47596 19.0781C3.56731 18.9449 2.85637 18.2402 2.69231 17.325C2.43149 15.8727 2.15385 13.7242 2.15385 11C2.15385 8.27148 2.43149 6.12734 2.69231 4.675C2.85637 3.75977 3.5631 3.05938 4.47596 2.92188C6.58774 2.6082 10.0877 2.2 14 2.2ZM10.7692 4.70937V17.2906L12.3846 16.3625L19.9231 11.9625L21.5385 11L19.9231 10.0375L12.3846 5.6375L10.7692 4.70937ZM12.9231 8.49063L17.1971 11L12.9231 13.5094V8.49063Z" fill="white"/>
</svg>
