<svg width="24" height="21" viewBox="0 0 24 21" fill="none" xmlns="http://www.w3.org/2000/svg">
<path d="M16.5714 0C13.4678 0 10.949 2.56009 10.8817 5.71256C8.13764 5.37658 6.35073 4.32921 5.25458 3.2972C4.03898 2.15272 3.65416 1.1359 3.65416 1.1359C3.59798 0.991399 3.5051 0.864781 3.38507 0.769077C3.26505 0.673373 3.12222 0.612039 2.97127 0.591385C2.82033 0.570731 2.66672 0.591503 2.52624 0.651563C2.38577 0.711623 2.26351 0.808803 2.17203 0.933105C2.17203 0.933105 1.14303 2.33333 1.14303 4.375C1.14303 5.54224 1.50405 6.40591 1.93431 7.13786C1.91846 7.13028 1.81154 7.09228 1.81154 7.09228C1.67494 7.02266 1.52259 6.99154 1.37025 7.00215C1.21792 7.01277 1.07112 7.06473 0.945046 7.15266C0.818971 7.24059 0.718191 7.3613 0.653126 7.50232C0.588062 7.64333 0.561074 7.79952 0.574953 7.95475C0.574953 7.95475 0.90486 10.4165 3.17202 12.2158L2.93542 12.2762C2.80698 12.3089 2.68772 12.3716 2.58697 12.4592C2.48623 12.5469 2.40674 12.6572 2.35474 12.7815C2.30274 12.9057 2.27963 13.0406 2.28724 13.1755C2.29485 13.3104 2.33296 13.4417 2.39859 13.5591C2.39859 13.5591 2.78304 14.223 3.58831 14.9217C4.06576 15.336 4.76714 15.7635 5.59386 16.159C4.57857 16.5378 3.06461 16.9167 0.857315 16.9167C0.692605 16.9166 0.531376 16.9651 0.392918 17.0561C0.25446 17.1472 0.144636 17.2771 0.0765844 17.4302C0.00853307 17.5833 -0.0148639 17.7532 0.00919276 17.9196C0.0332494 18.0859 0.103741 18.2416 0.212234 18.3682C0.212234 18.3682 0.867215 19.1048 2.16199 19.7456C3.45676 20.3865 5.45124 21 8.2858 21C13.2684 21 16.8484 18.56 19.0825 15.4674C21.3167 12.3749 22.2856 8.66898 22.2856 5.83333C22.2856 5.6534 22.2746 5.47601 22.2588 5.30013C23.4653 4.11343 23.918 3.2213 23.9396 3.17757C24.0482 2.95532 24.0077 2.6884 23.8392 2.51107C23.6712 2.33315 23.4108 2.28305 23.1896 2.38688L23.097 2.43018C23.0176 2.46751 22.9382 2.50508 22.8582 2.54183C23.0907 2.16325 23.2743 1.75868 23.4017 1.33984C23.4725 1.10884 23.396 0.855714 23.2086 0.70638C23.0212 0.557047 22.763 0.54106 22.5602 0.667643C21.8618 1.10096 21.1923 1.40431 20.4955 1.60758C19.47 0.614526 18.0896 0 16.5714 0ZM16.5714 1.75C18.7903 1.75 20.5714 3.56815 20.5714 5.83333C20.5714 8.24768 19.6831 11.6876 17.7031 14.4284C15.723 17.1692 12.7316 19.25 8.2858 19.25C6.13428 19.25 4.70309 18.8527 3.63072 18.4229C4.75403 18.2448 5.72123 18.0071 6.4164 17.7324C7.62191 17.256 8.2724 16.7059 8.2724 16.7059C8.39172 16.6014 8.48057 16.4653 8.52924 16.3127C8.5779 16.1601 8.58451 15.9967 8.54833 15.8405C8.51215 15.6843 8.43458 15.5412 8.3241 15.427C8.21363 15.3128 8.07451 15.2318 7.92196 15.1929C6.36614 14.7958 5.36831 14.1536 4.74231 13.6183L5.63628 13.3905C5.81307 13.3454 5.9712 13.244 6.08773 13.101C6.20425 12.958 6.27311 12.7808 6.2843 12.5952C6.2955 12.4095 6.24845 12.2251 6.14999 12.0685C6.05152 11.912 5.90676 11.7916 5.73672 11.7248C3.88239 10.9967 3.1037 9.96705 2.70551 9.10433C3.19006 9.20673 3.64122 9.33333 4.28584 9.33333C4.47888 9.33317 4.6662 9.26651 4.8175 9.14413C4.9688 9.02176 5.0752 8.85083 5.1195 8.65903C5.16379 8.46724 5.14337 8.26579 5.06155 8.08732C4.97972 7.90884 4.84129 7.76378 4.66865 7.67562C4.66865 7.67562 2.85729 6.825 2.85729 4.375C2.85729 3.93514 2.97663 3.65654 3.06376 3.3234C3.36272 3.73354 3.6091 4.12918 4.09165 4.5835C5.56287 5.96864 7.99458 7.38101 11.6686 7.58219C11.7848 7.58853 11.9011 7.57062 12.0104 7.52956C12.1196 7.48851 12.2195 7.42516 12.304 7.34339C12.3885 7.26163 12.4558 7.16315 12.5018 7.05396C12.5477 6.94478 12.5715 6.82718 12.5715 6.70833V5.83333C12.5715 3.56815 14.3525 1.75 16.5714 1.75Z" fill="white"/>
</svg>
